<svg width="45" height="150" viewBox="0 0 45 150" fill="none" xmlns="http://www.w3.org/2000/svg">
<g clip-path="url(#clip0)">
<path d="M0 20C0 8.9543 8.95431 0 20 0H66.164C76.7445 0 85.4944 8.24067 86.1281 18.8022L92.7281 128.802C93.4179 140.298 84.2808 150 72.764 150H20C8.9543 150 0 141.046 0 130V20Z" fill="#4CAF50"/>
<g clip-path="url(#clip1)">
<path d="M9 123.497L9 123.503C9 130.395 14.6062 136 21.5 136C24.2344 136 26.7688 135.119 28.8266 133.62L33.4703 135.178L31.9344 130.373C33.2438 128.397 34 126.039 34 123.497C34 116.605 28.3922 111 21.5 111C14.6078 111 9 116.605 9 123.497Z" fill="white"/>
<path d="M26.6515 116.223C27.5031 116.525 28.2094 117.722 28.4156 118.677C28.5547 119.33 28.6656 120.183 27.475 123.055C25.9531 126.728 22.2203 129.094 21.9781 129.278C21.7359 129.455 20.0016 130.763 18.2078 130.763C16.4141 130.763 15.5406 129.852 15.1656 129.484C14.8578 129.183 14.7172 128.684 14.7172 128.206C14.7172 128.052 14.725 127.913 14.7312 127.788C14.7469 127.42 14.7687 127.236 15.3484 126.994C16.075 126.692 17.8687 125.958 18.0531 125.87C18.2375 125.781 18.4875 125.692 18.7297 125.817C18.9797 125.934 19.0906 126.038 19.3031 126.222C19.5156 126.406 19.6781 126.581 19.9062 126.766C20.1047 126.934 20.3172 127.125 20.6844 126.913C21.0437 126.7 22.2422 125.966 23.2047 124.884C24.4469 123.489 24.8437 122.358 25.0125 121.953C25.1375 121.652 25.1078 121.292 24.8734 121.072C24.5719 120.792 24.0719 120.447 23.5797 120.095C23.2266 119.845 23.1828 119.53 23.3078 119.198C23.425 118.861 24.3078 117.075 24.4906 116.708C24.675 116.341 24.7625 116.098 24.9172 116.009C25.0719 115.922 25.7984 115.922 26.6515 116.223Z" fill="#4CAF50"/>
</g>
<path d="M28 96.1151L28 93.9624L23.794 93.9624L23.794 89.5923L28 89.5923L28 87.4446L17.8182 87.4446L17.8182 89.5923L22.0192 89.5923L22.0192 93.9624L17.8182 93.9624L17.8182 96.1151L28 96.1151ZM28 83.9148L25.6783 83.1591L25.6783 79.4851L28 78.7294L28 76.4226L17.8182 79.9325L17.8182 82.7067L28 86.2216L28 83.9148ZM23.9979 82.6122L20.1449 81.3594L20.1449 81.2798L23.9979 80.027L23.9979 82.6122ZM28 75.1971L28 70.8469C28 68.56 26.8068 67.342 25.1861 67.342C23.6797 67.342 22.7699 68.4208 22.7152 69.5792L22.6158 69.5792C22.3771 68.5202 21.6264 67.7397 20.4283 67.7397C18.902 67.7397 17.8182 68.8732 17.8182 71.1204L17.8182 75.1971L28 75.1971ZM26.2401 73.0444L23.5355 73.0444L23.5355 71.2397C23.5355 70.2056 24.1321 69.5643 24.9723 69.5643C25.7379 69.5643 26.2401 70.0863 26.2401 71.2894L26.2401 73.0444ZM22.0788 73.0444L19.5582 73.0444L19.5582 71.4087C19.5582 70.4542 20.0504 69.9123 20.7862 69.9123C21.5916 69.9123 22.0788 70.5685 22.0788 71.4485L22.0788 73.0444ZM28 65.9412L28 59.4235L26.2251 59.4235L26.2251 63.7885L17.8182 63.7885L17.8182 65.9412L28 65.9412ZM28 55.9831L25.6783 55.2274L25.6783 51.5534L28 50.7978L28 48.4909L17.8182 52.0009L17.8182 54.775L28 58.2899L28 55.9831ZM23.9979 54.6806L20.1449 53.4277L20.1449 53.3482L23.9979 52.0953L23.9979 54.6806ZM17.8182 38.7491L17.8182 40.8919L24.2216 40.8919L24.2216 40.9814L17.8182 45.3762L17.8182 47.2654L28 47.2654L28 45.1127L21.5916 45.1127L21.5916 45.0382L28 40.6085L28 38.7491L17.8182 38.7491ZM22.9091 27.614C19.5781 27.614 17.679 29.6822 17.679 32.3817C17.679 35.0962 19.5781 37.1495 22.9091 37.1495C26.2251 37.1495 28.1392 35.0962 28.1392 32.3817C28.1392 29.6822 26.2401 27.614 22.9091 27.614ZM22.9091 29.7965C25.0668 29.7965 26.2351 30.8207 26.2351 32.3817C26.2351 33.9478 25.0668 34.967 22.9091 34.967C20.7514 34.967 19.5831 33.9478 19.5831 32.3817C19.5831 30.8207 20.7514 29.7965 22.9091 29.7965ZM20.7464 20.4959L20.7464 18.4327C18.9318 18.4625 17.679 19.954 17.679 22.2211C17.679 24.4533 18.9119 26.089 20.7614 26.079C22.2628 26.084 23.1229 25.025 23.5355 23.3049L23.8139 22.1962C24.0824 21.0875 24.4006 20.4711 25.0866 20.4661C25.8324 20.4711 26.3395 21.177 26.3395 22.2708C26.3395 23.3894 25.8224 24.1948 24.8033 24.2644L24.8033 26.3475C27.0057 26.2928 28.1442 24.7168 28.1442 22.2459C28.1442 19.7601 26.956 18.2985 25.0916 18.2935C23.3963 18.2985 22.4964 19.5762 22.0987 21.3461L21.88 22.2608C21.6761 23.1458 21.348 23.8865 20.6172 23.8716C19.9609 23.8716 19.4787 23.2899 19.4787 22.236C19.4787 21.2069 19.946 20.5755 20.7464 20.4959Z" fill="white"/>
</g>
<defs>
<clipPath id="clip0">
<rect width="45" height="150" fill="white"/>
</clipPath>
<clipPath id="clip1">
<rect x="9" y="136" width="25" height="25" transform="rotate(-90 9 136)" fill="white"/>
</clipPath>
</defs>
</svg>
